<svg width="24" height="24" viewBox="0 0 24 24" fill="none" xmlns="http://www.w3.org/2000/svg">
    <path d="M12.1606 10.87C12.0606 10.86 11.9406 10.86 11.8306 10.87C9.45055 10.79 7.56055 8.84 7.56055 6.44C7.56055 3.99 9.54055 2 12.0006 2C14.4506 2 16.4406 3.99 16.4406 6.44C16.4306 8.84 14.5406 10.79 12.1606 10.87Z" stroke="#061023" stroke-width="1.5" stroke-linecap="round" stroke-linejoin="round"/>
    <path d="M7.15973 14.56C4.73973 16.18 4.73973 18.82 7.15973 20.43C9.90973 22.27 14.4198 22.27 17.1698 20.43C19.5898 18.81 19.5898 16.17 17.1698 14.56C14.4298 12.73 9.91973 12.73 7.15973 14.56Z" stroke="#061023" stroke-width="1.5" stroke-linecap="round" stroke-linejoin="round"/>
</svg>